# xmcd
#
# Track frame offsets:
# 150
# 17175
# 35542
# 48853
# 64519
# 84654
# 89832
# 112014
# 120331
# 138331
# 159924
# 190300
# 202930
# 216168
# 231644
# 241782
#
# Disc length: 3555 seconds
#
# Revision: 1
# Processed by: cddbd v1.5.2PL0 Copyright (c) Steve Scherf et al.
# Submitted via: CedeCatalogueitor 2.6.0.6 http://personales.ya.com/cdcatalogueitor
#
DISCID=da0de110
DTITLE=Varios Artistas - Souvenir Desde Umea
DYEAR=1900
DGENRE=
TTITLE0=Loveninjas - I Wanna Be Like Johnny C
TTITLE1=The Mary Onettes - Lost
TTITLE2=Lucknow Pact - Remember My Name
TTITLE3=Juni Järvi - Looking At You Is Like Looking A The Sun
TTITLE4=Pertty In Panic - Folding Hads
TTITLE5=Lonely Drifter Karen - The Owl Moans Low
TTITLE6=Sebastian Fors And The Ones That Got Away - I Ain't No Loss
TTITLE7=Britta Persson - You Are Not My Boyfriend
TTITLE8=Kristofer äström - Conjure Me
TTITLE9=Pirtoh - The Song For Emma And Martin
TTITLE10=Ebon Tale - Don Quijote
TTITLE11=Suburban Kids With Biblical Names - Europa
TTITLE12=Utah Ranger - You An Me In A Rented Car, Two Small Bags And A Plastic Guitar
TTITLE13=Marit Bergman - My Love (rmx)
TTITLE14=Irene - Baby, I Love You Way
TTITLE15=Jenifever - A Ghost In The Corner Of Your Eye
EXTD=
EXTT0=
EXTT1=
EXTT2=
EXTT3=
EXTT4=
EXTT5=
EXTT6=
EXTT7=
EXTT8=
EXTT9=
EXTT10=
EXTT11=
EXTT12=
EXTT13=
EXTT14=
EXTT15=
PLAYORDER=
